<?xml version="1.0" standalone="no"?><!DOCTYPE svg PUBLIC "-//W3C//DTD SVG 1.1//EN" "http://www.w3.org/Graphics/SVG/1.1/DTD/svg11.dtd"><svg t="1588412686573" class="icon" viewBox="0 0 1024 1024" version="1.1" xmlns="http://www.w3.org/2000/svg" p-id="1017" xmlns:xlink="http://www.w3.org/1999/xlink" width="200" height="200"><defs><style type="text/css"></style></defs><path d="M512 1008.941176c274.462118 0 496.941176-222.479059 496.941176-496.941176S786.462118 15.058824 512 15.058824 15.058824 237.537882 15.058824 512 237.537882 1008.941176 512 1008.941176z m0-30.117647C254.192941 978.823529 45.176471 769.807059 45.176471 512 45.176471 254.192941 254.192941 45.176471 512 45.176471c257.807059 0 466.823529 209.016471 466.823529 466.823529 0 257.807059-209.016471 466.823529-466.823529 466.823529z" p-id="1018"></path><path d="M481.882353 481.882353V271.058824a30.117647 30.117647 0 0 1 60.235294 0v210.823529h210.823529a30.117647 30.117647 0 0 1 0 60.235294h-210.823529v210.823529a30.117647 30.117647 0 0 1-60.235294 0v-210.823529H271.058824a30.117647 30.117647 0 0 1 0-60.235294h210.823529z" p-id="1019"></path></svg>